<svg xmlns="http://www.w3.org/2000/svg" width="1200" height="270" viewBox="0 0 1200 270">
<rect width="1200" height="270" fill="white"/>
<g font-family="Arial, Helvetica, sans-serif" fill="#111827">
<text x="55" y="45" font-size="24" font-weight="700">MY ROBOTICS STACK</text>
</g>
<g font-family="Arial, Helvetica, sans-serif">
<g stroke="#2563eb" fill="white" stroke-width="2">
<rect x="45" y="75" rx="14" width="245" height="130"/>
<text x="70" y="108" fill="#2563eb" font-size="19" font-weight="700">ALGORITHMS</text>
</g>
<g stroke="#10b981" fill="white" stroke-width="2">
<rect x="330" y="75" rx="14" width="245" height="130"/>
<text x="355" y="108" fill="#059669" font-size="19" font-weight="700">SIMULATION</text>
</g>
<g stroke="#f97316" fill="white" stroke-width="2">
<rect x="615" y="75" rx="14" width="245" height="130"/>
<text x="640" y="108" fill="#ea580c" font-size="19" font-weight="700">HARDWARE</text>
</g>
<g stroke="#7c3aed" fill="white" stroke-width="2">
<rect x="900" y="75" rx="14" width="245" height="130"/>
<text x="925" y="108" fill="#7c3aed" font-size="19" font-weight="700">APPLICATIONS</text>
</g>
<g fill="#374151" font-size="15">
<text x="70" y="137">• Kinematics</text><text x="70" y="160">• Computer Vision</text><text x="70" y="183">• Control Systems</text>
<text x="355" y="137">• ROS 2</text><text x="355" y="160">• Gazebo</text><text x="355" y="183">• RViz / MoveIt</text>
<text x="640" y="137">• Embedded Systems</text><text x="640" y="160">• Sensors &amp; Actuators</text><text x="640" y="183">• Microcontrollers</text>
<text x="925" y="137">• Mobile Robots</text><text x="925" y="160">• Soft Robotics</text><text x="925" y="183">• Digital Twins</text>
</g>
<g stroke="#9ca3af" stroke-width="2" fill="none">
<path d="M290 140 H330"/><path d="M575 140 H615"/><path d="M860 140 H900"/>
</g>
<rect x="505" y="220" width="190" height="36" rx="18" fill="white" stroke="#1d4ed8" stroke-width="2"/>
<text x="558" y="244" fill="#1d4ed8" font-size="17" font-weight="700">ROS 2</text>
</g></svg>